<svg width="25" height="24" viewBox="0 0 25 24" fill="none" xmlns="http://www.w3.org/2000/svg">
<path fill-rule="evenodd" clip-rule="evenodd" d="M20.2265 2C20.5612 2 20.8321 2.24848 20.8321 2.55556V8.11111C20.8321 8.41819 20.5612 8.66667 20.2265 8.66667C19.8917 8.66667 19.6209 8.41819 19.6209 8.11111V3.11111H5.08622V20.8889H9.32549C9.66023 20.8889 9.9311 21.1374 9.9311 21.4444C9.9311 21.7515 9.66023 22 9.32549 22H4.48061C4.14587 22 3.875 21.7515 3.875 21.4444V2.55556C3.875 2.24848 4.14587 2 4.48061 2H20.2265ZM19.942 10.7847C20.6186 10.1641 21.7198 10.1641 22.3964 10.7847L23.3681 11.6766C24.0441 12.2973 24.0441 13.3075 23.3675 13.9282L21.5974 15.5514L14.7452 21.8372C14.6317 21.9414 14.4779 22 14.317 22H11.7479C11.4132 22 11.1423 21.7515 11.1423 21.4444V19.0877C11.1423 18.9401 11.2062 18.799 11.3197 18.6949L18.1713 12.4091L19.942 10.7847ZM21.5394 11.5703C21.336 11.3837 21.003 11.3837 20.7984 11.5703L19.0277 13.1947L12.3535 19.3177V20.8889H14.0663L20.741 14.7658L22.5111 13.1426C22.7158 12.9549 22.7158 12.65 22.5111 12.4622L21.5394 11.5703ZM12.9592 12C13.2939 12 13.5648 12.2485 13.5648 12.5556C13.5648 12.8626 13.2939 13.1111 12.9592 13.1111H8.11427C7.77953 13.1111 7.50866 12.8626 7.50866 12.5556C7.50866 12.2485 7.77953 12 8.11427 12H12.9592ZM16.5928 8.66667C16.9276 8.66667 17.1984 8.91515 17.1984 9.22222C17.1984 9.5293 16.9276 9.77778 16.5928 9.77778H8.11427C7.77953 9.77778 7.50866 9.5293 7.50866 9.22222C7.50866 8.91515 7.77953 8.66667 8.11427 8.66667H16.5928ZM16.5928 5.33333C16.9276 5.33333 17.1984 5.58181 17.1984 5.88889C17.1984 6.19596 16.9276 6.44444 16.5928 6.44444H8.11427C7.77953 6.44444 7.50866 6.19596 7.50866 5.88889C7.50866 5.58181 7.77953 5.33333 8.11427 5.33333H16.5928Z" fill="#EC0000"/>
</svg>
