<svg width="61" height="32" viewBox="0 0 61 32" fill="none" xmlns="http://www.w3.org/2000/svg">
<path d="M2.42096 0H7.57689C8.91399 0 10.0688 0.121596 11.0311 0.37492C11.9934 0.628245 12.8645 1.09436 13.6445 1.77327C15.6805 3.51614 16.6935 6.16085 16.6935 9.71752C16.6935 10.893 16.5922 11.967 16.3896 12.9297C16.187 13.9024 15.873 14.7739 15.4475 15.5541C15.0221 16.3344 14.4751 17.0234 13.8066 17.6415C13.2798 18.1178 12.7126 18.4927 12.0845 18.7764C11.4666 19.0601 10.7981 19.2628 10.0789 19.3743C9.35969 19.4857 8.55946 19.5465 7.65793 19.5465H2.502C1.7828 19.5465 1.2358 19.435 0.87114 19.2223C0.506477 19.0095 0.273497 18.6953 0.162072 18.3002C0.0506475 17.905 0 17.3882 0 16.7599V2.42178C0 1.57061 0.192461 0.9525 0.577383 0.567447C0.952176 0.192527 1.57008 0 2.42096 0ZM3.95052 3.13109V16.3952H6.94886C7.60728 16.3952 8.12389 16.3749 8.49868 16.3445C8.87347 16.3141 9.25839 16.2229 9.65345 16.081C10.0485 15.9392 10.403 15.7365 10.6968 15.4832C12.0238 14.3584 12.6822 12.4332 12.6822 9.69726C12.6822 7.77199 12.3884 6.32298 11.811 5.36034C11.2337 4.39771 10.5145 3.78973 9.65345 3.52628C8.80257 3.26282 7.76935 3.13109 6.56394 3.13109H3.95052Z" fill="black"/>
<path d="M22.194 7.14382V17.6618C22.194 18.3914 22.0218 18.9386 21.6774 19.3135C21.333 19.6884 20.8873 19.8708 20.3606 19.8708C19.8338 19.8708 19.3983 19.6783 19.064 19.2933C18.7297 18.9082 18.5676 18.361 18.5676 17.6517V7.24515C18.5676 6.52571 18.7297 5.97853 19.064 5.61374C19.3983 5.24895 19.8338 5.06656 20.3606 5.06656C20.8873 5.06656 21.333 5.24895 21.6774 5.61374C22.0218 5.98866 22.194 6.49531 22.194 7.14382Z" fill="black"/>
<path d="M36.6993 12.7472V17.5908C36.6993 18.3508 36.5271 18.9283 36.1827 19.3134C35.8383 19.6984 35.3824 19.891 34.8051 19.891C34.2581 19.891 33.8124 19.6984 33.468 19.3134C33.1236 18.9283 32.9514 18.3609 32.9514 17.5908V11.7947C32.9514 10.8828 32.921 10.1633 32.8602 9.65667C32.7994 9.15002 32.6272 8.73457 32.3537 8.41031C32.0802 8.08606 31.6446 7.92393 31.047 7.92393C29.8517 7.92393 29.0717 8.32925 28.697 9.15002C28.3222 9.97079 28.1297 11.1462 28.1297 12.6662V17.5908C28.1297 18.3508 27.9575 18.9182 27.6131 19.3033C27.2687 19.6883 26.823 19.8808 26.2557 19.8808C25.7087 19.8808 25.2529 19.6883 24.8984 19.3033C24.5438 18.9182 24.3716 18.3406 24.3716 17.5908V7.17409C24.3716 6.48505 24.5337 5.96827 24.8477 5.61361C25.1617 5.25896 25.5771 5.07657 26.0937 5.07657C26.59 5.07657 27.0053 5.23869 27.3396 5.57308C27.6739 5.90747 27.8359 6.36345 27.8359 6.95117V7.29569C28.464 6.53571 29.1427 5.98853 29.8618 5.63388C30.581 5.27923 31.3813 5.09683 32.2625 5.09683C33.1742 5.09683 33.9643 5.27922 34.6227 5.64401C35.2811 6.0088 35.818 6.55598 36.2536 7.29569C36.8715 6.54585 37.5198 5.99867 38.2288 5.63388C38.9278 5.26909 39.7078 5.09683 40.5586 5.09683C41.5513 5.09683 42.4123 5.28936 43.1315 5.68454C43.8507 6.07973 44.3876 6.63704 44.7421 7.36662C45.0561 8.02526 45.2081 9.05882 45.2081 10.4774V17.5807C45.2081 18.3406 45.0359 18.9182 44.6915 19.3033C44.3471 19.6883 43.8913 19.8808 43.3139 19.8808C42.7669 19.8808 42.311 19.6883 41.9565 19.3033C41.602 18.9182 41.4298 18.3406 41.4298 17.5908V11.4705C41.4298 10.6902 41.3994 10.062 41.3285 9.58574C41.2576 9.11962 41.0854 8.7143 40.7916 8.40018C40.4979 8.07593 40.0522 7.92393 39.4545 7.92393C38.9784 7.92393 38.5226 8.06579 38.087 8.34952C37.6515 8.63324 37.3172 9.01829 37.0842 9.49454C36.831 10.1025 36.6993 11.1867 36.6993 12.7472Z" fill="black"/>
<path d="M35.6969 32C29.4773 32 23.5718 29.0006 19.8948 23.9848C19.7023 23.7214 19.753 23.3464 20.0265 23.1539C20.2899 22.9614 20.6647 23.0121 20.8571 23.2856C24.3113 27.9975 29.8623 30.8144 35.6969 30.8144C43.5068 30.8144 50.486 25.8594 53.0589 18.4826C53.1703 18.1685 53.5046 18.0064 53.8186 18.1178C54.1326 18.2293 54.2947 18.5637 54.1833 18.8778C51.4483 26.7207 44.0132 32 35.6969 32Z" fill="black"/>
<path d="M20.3193 25.5249C19.7925 25.5249 19.3468 25.3627 18.9721 25.0385C18.5973 24.7142 18.4149 24.2583 18.4149 23.6705C18.4149 23.1335 18.6074 22.6978 18.9822 22.3533C19.3671 22.0087 19.8027 21.8365 20.3092 21.8365C20.7954 21.8365 21.2309 21.9885 21.6057 22.3026C21.9805 22.6167 22.173 23.0727 22.173 23.6705C22.173 24.2481 21.9907 24.7041 21.626 25.0284C21.2512 25.3627 20.8156 25.5249 20.3193 25.5249Z" fill="black"/>
<path d="M61 12.4736C61 13.5578 60.8278 14.561 60.4935 15.4729C60.1593 16.3849 59.6629 17.1753 59.0247 17.8339C58.3866 18.4925 57.6167 18.9992 56.7355 19.3437C55.8441 19.6984 54.8514 19.8706 53.7371 19.8706C52.633 19.8706 51.6403 19.6882 50.7692 19.3336C49.8879 18.9789 49.1282 18.4723 48.4799 17.8035C47.8316 17.1449 47.3454 16.3545 47.0111 15.4527C46.6768 14.5508 46.5148 13.5477 46.5148 12.4634C46.5148 11.3589 46.687 10.3558 47.0212 9.43367C47.3555 8.5217 47.8417 7.73133 48.4698 7.08282C49.0978 6.4343 49.8676 5.93779 50.759 5.58313C51.6606 5.22848 52.6431 5.05622 53.727 5.05622C54.8311 5.05622 55.8238 5.23861 56.7253 5.59327C57.6269 5.94792 58.3866 6.45457 59.0349 7.11321C59.673 7.77186 60.1593 8.5521 60.4935 9.46406C60.8379 10.3862 61 11.3792 61 12.4736ZM57.3534 12.4736C57.3534 10.984 57.0292 9.82885 56.3708 9.00808C55.7124 8.18731 54.8412 7.77186 53.7371 7.77186C53.0281 7.77186 52.4 7.95425 51.853 8.32917C51.306 8.69396 50.8907 9.24114 50.597 9.96058C50.3032 10.68 50.1614 11.5211 50.1614 12.4837C50.1614 13.4362 50.3032 14.2671 50.597 14.9764C50.8806 15.6857 51.2959 16.2329 51.8328 16.6078C52.3696 16.9827 53.0078 17.1753 53.7371 17.1753C54.8412 17.1753 55.7124 16.7598 56.3708 15.9289C57.0292 15.0879 57.3534 13.9428 57.3534 12.4736Z" fill="black"/>
</svg>
