<svg width="254" height="254" viewBox="0 0 254 254" fill="none" xmlns="http://www.w3.org/2000/svg">
<path d="M50.6606 55.1904L109.786 134.247L50.2869 198.523H63.6765L115.768 142.247L157.856 198.523H203.426L140.974 115.021L196.353 55.1932H182.964L134.992 107.018L96.2304 55.1904H50.6606ZM70.3531 65.0535H91.2876L183.731 188.657H162.796L70.3531 65.0535Z" fill="#898F9C"/>
<path d="M126.856 253.307C57.132 253.307 0.406494 196.581 0.406494 126.857C0.406494 57.1321 57.132 0.406616 126.856 0.406616C196.581 0.406616 253.306 57.1321 253.306 126.857C253.306 196.581 196.581 253.307 126.856 253.307ZM126.856 8.83662C61.7797 8.83662 8.83649 61.7798 8.83649 126.857C8.83649 191.933 61.7797 244.877 126.856 244.877C191.933 244.877 244.876 191.933 244.876 126.857C244.876 61.7798 191.933 8.83662 126.856 8.83662Z" fill="#898F9C"/>
</svg>
