<svg width="20" height="20" viewBox="0 0 20 20" fill="none" xmlns="http://www.w3.org/2000/svg">
<path fill-rule="evenodd" clip-rule="evenodd" d="M10 0C15.5142 0 20 4.48633 20 10C20 15.5137 15.5142 20 10 20C4.48584 20 0 15.5137 0 10C0 4.48633 4.48584 0 10 0ZM10 1C5.0376 1 1 5.03711 1 10C1 14.9629 5.0376 19 10 19C14.9624 19 19 14.9629 19 10C19 5.03711 14.9624 1 10 1ZM6.74951 4.96777C6.9043 4.87793 7.09424 4.87891 7.24902 4.9668L15.249 9.56641C15.4043 9.65527 15.5 9.82129 15.5 10C15.5 10.1787 15.4043 10.3447 15.249 10.4336L7.24902 15.0332C7.17188 15.0771 7.08594 15.0996 7 15.0996C6.91357 15.0996 6.82715 15.0771 6.74951 15.0322C6.59521 14.9434 6.5 14.7783 6.5 14.5996V5.40039C6.5 5.22168 6.59521 5.05664 6.74951 4.96777ZM7.5 6.26465V13.7354L13.9971 10L7.5 6.26465Z" fill="#EC0000"/>
</svg>
