<svg width="200" height="35" viewBox="0 0 200 35" fill="none" xmlns="http://www.w3.org/2000/svg">
<path fill-rule="evenodd" clip-rule="evenodd" d="M200 15.7206C200 16.8608 199.862 18.2428 199.654 18.9686C198.755 18.8645 197.855 18.8302 196.783 18.8302C195.849 18.8302 194.915 18.8995 193.981 19.0374V33.8252H190.176V16.5497C191.802 15.9969 194.535 15.5827 196.679 15.5827C197.855 15.5827 199.17 15.617 200 15.7206ZM174.471 23.2527H183.05C183.05 20.4194 181.528 18.7611 178.899 18.7611C176.201 18.7611 174.783 20.3158 174.471 23.2527ZM186.682 26.4314H174.541C175.025 29.5063 176.823 30.9921 180.213 30.9921C182.289 30.9921 184.399 30.5429 186.301 29.679C186.163 30.6811 185.956 31.994 185.713 33.134C183.984 33.9288 182.151 34.2397 180.11 34.2397C173.745 34.2397 170.667 30.7156 170.667 24.8074C170.667 19.6593 173.053 15.5827 179.107 15.5827C184.537 15.5827 186.889 19.141 186.889 23.4945C186.889 24.5657 186.82 25.4294 186.682 26.4314ZM163.782 29.8171V19.1758C162.779 18.9686 161.741 18.8302 160.738 18.8302C156.968 18.8302 155.169 21.1797 155.169 25.1185C155.169 28.6426 156.588 31.1303 159.977 31.1303C161.499 31.1303 162.745 30.612 163.782 29.8171ZM167.553 9.63972V33.8252H164.059L163.852 31.6141C162.883 33.2381 161.395 34.2397 158.905 34.2397C154.339 34.2397 151.295 30.9228 151.295 25.1185C151.295 19.0374 154.547 15.5827 160.946 15.5827C161.949 15.5827 162.883 15.686 163.782 15.859V10.158C164.958 9.74333 166.307 9.63972 167.553 9.63972ZM148.25 22.2164V33.8252H144.445V22.8726C144.445 20.1434 143.546 18.8302 139.741 18.8302C138.842 18.8302 137.769 18.9338 136.732 19.1065V33.8252H132.927V16.5497C135.348 15.9626 138.012 15.5827 139.845 15.5827C146.209 15.5827 148.25 18.0353 148.25 22.2164ZM124.97 29.8864V19.0374C124.175 18.8995 123.309 18.8302 122.237 18.8302C118.294 18.8302 116.461 21.2488 116.461 25.1185C116.461 28.6426 117.879 31.1303 121.269 31.1303C122.756 31.1303 123.967 30.6468 124.97 29.8864ZM128.775 16.5497V33.8252H125.281L125.074 31.7522C124.105 33.2724 122.618 34.2397 120.197 34.2397C115.631 34.2397 112.587 30.9228 112.587 25.1185C112.587 19.0374 115.838 15.5827 122.237 15.5827C124.728 15.5827 126.769 15.859 128.775 16.5497ZM108.366 30.9921C109.473 30.9921 110.511 30.7847 111.341 30.4738C111.237 31.5102 111.098 32.6852 110.891 33.6868C109.853 34.1015 108.746 34.2397 107.674 34.2397C103.973 34.2397 101.621 32.5466 101.621 28.3315V10.1926C102.797 9.8124 104.249 9.63972 105.426 9.63972V16.1698H111.444C111.375 17.3446 111.272 18.4157 111.098 19.4173H105.426V27.8825C105.426 30.1282 106.533 30.9921 108.366 30.9921ZM97.8149 22.2164V33.8252H94.0098V22.8726C94.0098 20.1434 93.1103 18.8302 89.3056 18.8302C88.4061 18.8302 87.3339 18.9338 86.2961 19.1065V33.8252H82.4913V16.5497C84.9125 15.9626 87.5759 15.5827 89.4093 15.5827C95.774 15.5827 97.8149 18.0353 97.8149 22.2164ZM74.5345 29.8864V19.0374C73.739 18.8995 72.8743 18.8302 71.8019 18.8302C67.8586 18.8302 66.0255 21.2488 66.0255 25.1185C66.0255 28.6426 67.4436 31.1303 70.8335 31.1303C72.3208 31.1303 73.5315 30.6468 74.5345 29.8864ZM78.3395 16.5497V33.8252H74.846L74.6385 31.7522C73.6698 33.2724 72.1825 34.2397 69.7613 34.2397C65.1951 34.2397 62.1513 30.9228 62.1513 25.1185C62.1513 19.0374 65.4028 15.5827 71.8019 15.5827C74.2925 15.5827 76.3333 15.859 78.3395 16.5497ZM43.7829 33.0652C43.8521 31.6484 44.0596 30.6811 44.4402 29.5756C46.3773 30.4738 48.8676 30.9228 50.7703 30.9228C53.987 30.9228 55.7858 29.8864 55.7858 27.848C55.7858 25.8441 54.4714 24.911 51.2198 23.4945L49.4556 22.7347C46.2041 21.3179 43.9904 19.4867 43.9904 15.8242C43.9904 11.8857 46.7233 9.36317 52.3268 9.36317C54.5751 9.36317 56.6851 9.6745 58.6567 10.3653C58.553 11.7473 58.311 12.8184 57.9649 13.8205C56.097 13.1293 53.8833 12.8184 52.292 12.8184C49.2828 12.8184 47.8992 13.9932 47.8992 15.8242C47.8992 17.6209 49.2482 18.6575 51.6696 19.6941L53.5375 20.4885C57.9304 22.3545 59.7635 24.3239 59.7635 27.6753C59.7635 31.6484 56.7542 34.3781 50.8738 34.3781C48.0375 34.3781 45.72 33.9636 43.7829 33.0652ZM26.3965 16.0314C26.3418 14.7702 25.9884 13.519 25.3346 12.388L19.5683 2.41177C19.1286 1.6512 18.8247 0.835765 18.6563 0L18.4152 0.416658C16.9879 2.88599 16.9879 5.92801 18.4149 8.39734L23.0282 16.3783C24.4552 18.8476 24.4552 21.8898 23.0282 24.3589L22.7872 24.7758C22.6185 23.9398 22.3146 23.1246 21.8749 22.3641L17.6518 15.0575L14.9552 10.3924C14.5155 9.63188 14.2119 8.81644 14.043 7.98068L13.8021 8.39758C12.3798 10.8583 12.3754 13.8884 13.7882 16.353L13.7877 16.3533L18.4152 24.3589C19.8424 26.8283 19.8424 29.8705 18.4152 32.3399L18.1741 32.7568C18.0054 31.9207 17.7016 31.1056 17.2619 30.3447L11.4957 20.3687C10.7223 19.0306 10.3689 17.5244 10.4336 16.0324C4.26066 17.6432 0 21.0636 0 25.024C0 30.5336 8.24469 35 18.4152 35C28.5854 35 36.8301 30.5336 36.8301 25.024C36.8301 21.0636 32.57 17.6422 26.3965 16.0314Z" fill="#EC0000"/>
</svg>
