<svg width="32" height="32" viewBox="0 0 32 32" fill="none" xmlns="http://www.w3.org/2000/svg">
<path fill-rule="evenodd" clip-rule="evenodd" d="M5.52793 22.862C5.78835 22.6016 6.21023 22.6016 6.47064 22.862C6.73106 23.1224 6.73106 23.5443 6.47064 23.8047L4.942 25.3333H9.99929C10.3678 25.3333 10.666 25.6315 10.666 26C10.666 26.3685 10.3678 26.6667 9.99929 26.6667H4.942L6.47064 28.1953C6.73106 28.4557 6.73106 28.8776 6.47064 29.138C6.34043 29.2682 6.16986 29.3333 5.99929 29.3333C5.82872 29.3333 5.65814 29.2682 5.52793 29.138L2.86208 26.4722C2.80023 26.4105 2.75116 26.3366 2.71722 26.2545C2.64984 26.0916 2.64984 25.9084 2.71722 25.7454C2.75116 25.6634 2.80023 25.5895 2.86208 25.5278L5.52793 22.862ZM15.4602 6.59634C15.8287 6.59634 16.1269 6.89452 16.1269 7.26301V9.3544C18.1998 9.48664 19.9636 10.4238 20.0423 10.4674C20.3652 10.6432 20.4837 11.0469 20.3079 11.3698C20.1334 11.6927 19.7311 11.8151 19.4042 11.638C19.3873 11.6276 17.5813 10.6614 15.6594 10.6614C14.1673 10.6614 12.58 11.2982 12.58 12.4766C12.58 13.7799 14.1243 14.4284 16.4798 15.2695C18.6829 16.056 20.9628 16.8698 20.9628 18.9609C20.9628 20.9971 19.1542 22.2253 16.1269 22.2876V24.3489C16.1269 24.7174 15.8287 25.0156 15.4602 25.0156C15.0917 25.0156 14.7936 24.7174 14.7936 24.3489V22.243C12.6177 22.0136 11.4992 21.1542 11.2744 20.9631L11.2337 20.9271C10.9654 20.6758 10.9511 20.2539 11.2024 19.9844C11.455 19.7187 11.8756 19.7018 12.1451 19.9531C12.1503 19.9583 13.3079 20.9661 15.8951 20.9661C17.0175 20.9661 19.6295 20.7708 19.6295 18.9609C19.6295 17.8099 17.8821 17.1862 16.0305 16.5247C13.7884 15.7253 11.2467 14.8177 11.2467 12.4766C11.2467 10.866 12.6951 9.64875 14.7936 9.38476V7.26301C14.7936 6.89452 15.0917 6.59634 15.4602 6.59634ZM25.5279 2.86197C25.7884 2.60155 26.2102 2.60155 26.4706 2.86197L29.1365 5.52782C29.1983 5.58951 29.2474 5.6634 29.2814 5.74543C29.3487 5.90836 29.3487 6.09162 29.2814 6.25455C29.2474 6.33658 29.1983 6.41047 29.1365 6.47216L26.4706 9.13801C26.3404 9.26822 26.1699 9.33332 25.9993 9.33332C25.8287 9.33332 25.6581 9.26822 25.5279 9.13801C25.2675 8.87759 25.2675 8.45572 25.5279 8.1953L27.0566 6.66666H21.9993C21.6308 6.66666 21.3326 6.36848 21.3326 5.99999C21.3326 5.6315 21.6308 5.33332 21.9993 5.33332H27.0566L25.5279 3.80468C25.2675 3.54426 25.2675 3.12239 25.5279 2.86197Z" fill="#EC0000"/>
</svg>
